<?xml version="1.0" encoding="utf-8"?>
<!-- Generator: Adobe Illustrator 19.0.0, SVG Export Plug-In . SVG Version: 6.00 Build 0)  -->
<svg version="1.1" id="Layer_1" xmlns="http://www.w3.org/2000/svg" xmlns:xlink="http://www.w3.org/1999/xlink" x="0px" y="0px"
	 viewBox="0 0 398.1 111.5" style="enable-background:new 0 0 398.1 111.5;" xml:space="preserve">
<style type="text/css">
	.st0{fill:#61C086;}
	.st1{fill:#C0D730;}
	.st2{fill:#FBDE00;}
	.st3{fill:#F06598;}
	.st4{fill:#EE3477;}
	.st5{fill:#72CFEE;}
	.st6{display:none;}
	.st7{display:inline;}
	.st8{display:inline;clip-path:url(#XMLID_105_);fill:#60C7CD;}
	.st9{display:inline;clip-path:url(#XMLID_105_);fill:#64BD59;}
	.st10{display:inline;clip-path:url(#XMLID_105_);fill:#C0D730;}
	.st11{display:inline;clip-path:url(#XMLID_105_);fill:#FBDE00;}
	.st12{display:inline;clip-path:url(#XMLID_105_);fill:#F8B916;}
	.st13{display:inline;clip-path:url(#XMLID_105_);fill:#F08721;}
	.st14{display:inline;clip-path:url(#XMLID_105_);fill:#F06598;}
	.st15{display:inline;clip-path:url(#XMLID_105_);fill:#EE3477;}
	.st16{fill:#73CFED;}
	.st17{font-family:'Nunito-Bold';}
	.st18{font-size:56.7665px;}
	.st19{letter-spacing:1;}
	.st20{fill:#C0D731;}
	.st21{letter-spacing:5;}
	.st22{fill:#65BD5A;}
	.st23{font-size:33.303px;}
	.st24{letter-spacing:3;}
	.st25{fill:#EE3577;}
	.st26{fill:#FADE00;}
	.st27{fill:#F6B818;}
	.st28{display:inline;fill:#61C086;}
	.st29{display:inline;fill:#C0D730;}
	.st30{display:inline;fill:#FBDE00;}
	.st31{display:inline;fill:#F06598;}
	.st32{display:inline;fill:#EC3576;}
	.st33{display:inline;fill:#72CFEE;}
	.st34{display:inline;fill:#FFFFFF;stroke:#000000;stroke-miterlimit:10;}
	.st35{display:inline;fill:#FFFFFF;}
</style>
<path id="XMLID_69_" class="st0" d="M99.1,14.2L63,79.6c-1,1.7-0.3,3.9,1.4,4.9h0c1.7,1,3.9,0.3,4.9-1.4l36.1-65.4
	c1-1.7,0.3-3.9-1.4-4.9l0,0C102.2,11.8,100.1,12.4,99.1,14.2z"/>
<path id="XMLID_68_" class="st1" d="M81.2,14.2L45.4,79c-1,1.7-0.3,3.9,1.4,4.9l0,0c1.7,1,3.9,0.3,4.9-1.4l35.8-64.9
	c1-1.7,0.3-3.9-1.4-4.9l0,0C84.3,11.8,82.1,12.4,81.2,14.2z"/>
<path id="XMLID_67_" class="st2" d="M63.5,14.2L36.8,62.6c-1,1.7-0.3,3.9,1.4,4.9l0,0c1.7,1,3.9,0.3,4.9-1.4l26.7-48.4
	c1-1.7,0.3-3.9-1.4-4.9l0,0C66.6,11.8,64.4,12.4,63.5,14.2z"/>
<path id="XMLID_66_" class="st3" d="M45.5,14.2L27.8,46.4c-1,1.7-0.3,3.9,1.4,4.9l0,0c1.7,1,3.9,0.3,4.9-1.4l17.8-32.2
	c1-1.7,0.3-3.9-1.4-4.9l0,0C48.7,11.8,46.5,12.4,45.5,14.2z"/>
<path id="XMLID_65_" class="st4" d="M28.7,14.2L18.8,32c-1,1.7-0.3,3.9,1.4,4.9l0,0c1.7,1,3.9,0.3,4.9-1.4l9.8-17.8
	c1-1.7,0.3-3.9-1.4-4.9l0,0C31.8,11.8,29.6,12.4,28.7,14.2z"/>
<path id="XMLID_62_" class="st5" d="M10.8,14.2L10.8,14.2c-1,1.7-0.3,3.9,1.4,4.9l0,0c1.7,1,3.9,0.3,4.9-1.4l0,0
	c1-1.7,0.3-3.9-1.4-4.9l0,0C14,11.8,11.8,12.4,10.8,14.2z"/>
<path id="XMLID_70_" class="st0" d="M54.6,93.9L54.6,93.9c-1,1.7-0.3,3.9,1.4,4.9l0,0c1.7,1,3.9,0.3,4.9-1.4l0,0
	c1-1.7,0.3-3.9-1.4-4.9l0,0C57.8,91.5,55.6,92.2,54.6,93.9z"/>
<g id="XMLID_9_" class="st6">
	<defs>
		<path id="XMLID_71_" d="M965-192.3c-1.6-1.7-3.8-2.8-6.3-2.8H857.5c-2.4,0-4.6,1-6.1,2.6c-1.1,0.7-2,1.7-2.7,2.9L722.1,39.9
			c-2.3,4.2-0.8,9.4,3.4,11.7c4.2,2.3,9.4,0.8,11.7-3.4l124.7-226.1h83.8L755.9,166.4l-196.4-356c-1.2-2.2-3.2-3.6-5.4-4.2
			c-1.3-0.8-2.9-1.3-4.5-1.3H448.4c-4.8,0-8.6,3.9-8.6,8.6c0,0.1,0,0.2,0,0.4c-0.1,1.6,0.2,3.3,1,4.8l203,368c0.6,1.1,1.4,2,2.3,2.7
			c1.6,1.9,4,3.2,6.7,3.2h58.9c4.8,0,8.6-3.9,8.6-8.6c0-4.8-3.9-8.6-8.6-8.6h-54.4L462.5-177.8h83.8l201.1,364.6
			c1.7,3.1,5.1,4.8,8.4,4.4c3.3,0.3,6.7-1.3,8.4-4.4l203-368C969.4-185.1,968.3-189.7,965-192.3z"/>
	</defs>
	<clipPath id="XMLID_105_" class="st7">
		<use xlink:href="#XMLID_71_"  style="overflow:visible;"/>
	</clipPath>
	
		<rect id="XMLID_87_" x="175.1" y="-196.8" transform="matrix(0.4778 -0.8784 0.8784 0.4778 391.7612 309.8719)" class="st8" width="562.9" height="44.5"/>
	
		<rect id="XMLID_86_" x="200.8" y="-151.5" transform="matrix(0.4778 -0.8784 0.8784 0.4778 365.4014 356.1242)" class="st9" width="562.9" height="44.5"/>
	
		<rect id="XMLID_85_" x="227.1" y="-106.6" transform="matrix(0.4778 -0.8784 0.8784 0.4778 339.673 402.6602)" class="st10" width="562.9" height="44.5"/>
	
		<rect id="XMLID_84_" x="252.8" y="-62.7" transform="matrix(0.4778 -0.8784 0.8784 0.4778 314.5011 448.1896)" class="st11" width="562.9" height="44.5"/>
	
		<rect id="XMLID_83_" x="280.9" y="-22.1" transform="matrix(0.4778 -0.8784 0.8784 0.4778 293.5685 494.0897)" class="st12" width="562.9" height="44.5"/>
	
		<rect id="XMLID_82_" x="343.1" y="-44.1" transform="matrix(0.4778 -0.8784 0.8784 0.4778 345.3639 537.2219)" class="st13" width="562.9" height="44.5"/>
	
		<rect id="XMLID_81_" x="402.1" y="-65" transform="matrix(0.4778 -0.8784 0.8784 0.4778 394.499 578.1387)" class="st14" width="562.9" height="44.5"/>
	
		<rect id="XMLID_80_" x="464.3" y="-87" transform="matrix(0.4778 -0.8784 0.8784 0.4778 446.3107 621.2844)" class="st15" width="562.9" height="44.5"/>
	
		<rect id="XMLID_79_" x="504.5" y="-75.6" transform="matrix(0.4778 -0.8784 0.8784 0.4778 457.2741 662.5056)" class="st8" width="562.9" height="44.5"/>
	
		<rect id="XMLID_78_" x="530.2" y="-30.3" transform="matrix(0.4778 -0.8784 0.8784 0.4778 430.9144 708.7579)" class="st9" width="562.9" height="44.5"/>
	
		<rect id="XMLID_77_" x="556.5" y="14.6" transform="matrix(0.4778 -0.8784 0.8784 0.4778 405.1859 755.2939)" class="st10" width="562.9" height="44.5"/>
	
		<rect id="XMLID_76_" x="582.2" y="58.5" transform="matrix(0.4778 -0.8784 0.8784 0.4778 380.014 800.8233)" class="st11" width="562.9" height="44.5"/>
	
		<rect id="XMLID_75_" x="610.3" y="99.1" transform="matrix(0.4778 -0.8784 0.8784 0.4778 359.0815 846.7234)" class="st12" width="562.9" height="44.5"/>
	
		<rect id="XMLID_74_" x="672.5" y="77.1" transform="matrix(0.4778 -0.8784 0.8784 0.4778 410.8769 889.8556)" class="st13" width="562.9" height="44.5"/>
	
		<rect id="XMLID_73_" x="731.5" y="56.2" transform="matrix(0.4778 -0.8784 0.8784 0.4778 460.0119 930.7724)" class="st14" width="562.9" height="44.5"/>
	
		<rect id="XMLID_72_" x="793.7" y="34.2" transform="matrix(0.4778 -0.8784 0.8784 0.4778 511.8236 973.9181)" class="st15" width="562.9" height="44.5"/>
</g>
<text id="XMLID_2_" transform="matrix(1 0 0 1 122.8953 94.1802)"><tspan x="0" y="0" class="st16 st17 st18 st19">V</tspan><tspan x="41.9" y="0" class="st0 st17 st18 st19">a</tspan><tspan x="73.9" y="0" class="st20 st17 st18 st21">r</tspan><tspan x="101.3" y="-4.1" class="st22 st17 st23 st24">{</tspan><tspan x="117.6" y="0" class="st3 st17 st18">i</tspan><tspan x="132" y="0" class="st25 st17 st18">a</tspan><tspan x="162.6" y="-4.1" class="st22 st17 st23 st24">}</tspan><tspan x="178.9" y="0" class="st20 st17 st18 st21">b</tspan><tspan x="218.7" y="0" class="st26 st17 st18 st19">l</tspan><tspan x="234.5" y="0" class="st27 st17 st18 st19">e</tspan></text>
<g id="XMLID_93_" class="st6">
	<path id="XMLID_57_" class="st28" d="M470.2-152.8L401.9-29c-1.5,2.7-0.5,6,2.2,7.5l0,0c2.7,1.5,6,0.5,7.5-2.2l68.3-123.8
		c1.5-2.7,0.5-6-2.2-7.5l0,0C475-156.4,471.6-155.4,470.2-152.8z"/>
	<path id="XMLID_53_" class="st29" d="M442.7-152.8l-54.9,99.6c-1.5,2.7-0.5,6,2.2,7.5l0,0c2.7,1.5,6,0.5,7.5-2.2l54.9-99.6
		c1.5-2.7,0.5-6-2.2-7.5l0,0C447.5-156.4,444.1-155.4,442.7-152.8z"/>
	<path id="XMLID_55_" class="st30" d="M415.5-152.8l-41,74.4c-1.5,2.7-0.5,6,2.2,7.5v0c2.7,1.5,6,0.5,7.5-2.2l41-74.4
		c1.5-2.7,0.5-6-2.2-7.5l0,0C420.3-156.4,416.9-155.4,415.5-152.8z"/>
	<path id="XMLID_59_" class="st31" d="M387.9-152.8l-27.3,49.5c-1.5,2.7-0.5,6,2.2,7.5l0,0c2.7,1.5,6,0.5,7.5-2.2l27.3-49.5
		c1.5-2.7,0.5-6-2.2-7.5v0C392.8-156.4,389.4-155.4,387.9-152.8z"/>
	<path id="XMLID_60_" class="st32" d="M361.5-152.8l-15.1,27.3c-1.5,2.7-0.5,6,2.2,7.5l0,0c2.7,1.5,6,0.5,7.5-2.2l15.1-27.3
		c1.5-2.7,0.5-6-2.2-7.5v0C366.4-156.4,363-155.4,361.5-152.8z"/>
	<path id="XMLID_61_" class="st33" d="M334.7-152.8L334.7-152.8c-1.5,2.7-0.5,6,2.2,7.5l0,0c2.7,1.5,6,0.5,7.5-2.2v0
		c1.5-2.7,0.5-6-2.2-7.5l0,0C339.5-156.4,336.1-155.4,334.7-152.8z"/>
	<path id="XMLID_5_" class="st33" d="M572.5-153.8c-1-1.1-2.4-1.8-4.1-1.8h-64.7c-1.5,0-2.9,0.6-3.9,1.7c-0.7,0.5-1.3,1.1-1.7,1.8
		l-81,146.9c-1.5,2.7-0.5,6,2.2,7.5c2.7,1.5,6,0.5,7.5-2.2l79.8-144.7h53.7L438.7,75.7L313.1-152.1c-0.8-1.4-2-2.3-3.5-2.7
		c-0.8-0.5-1.8-0.8-2.9-0.8H242c-3,0-5.5,2.5-5.5,5.5c0,0.1,0,0.2,0,0.2c-0.1,1,0.1,2.1,0.7,3.1L367.1,88.8c0.4,0.7,0.9,1.3,1.5,1.7
		c1,1.2,2.5,2.1,4.3,2.1h37.7c3,0,5.5-2.5,5.5-5.5c0-3-2.5-5.5-5.5-5.5h-34.8L251-144.6h53.7L433.3,88.8c1.1,2,3.3,3,5.4,2.8
		c2.1,0.2,4.3-0.8,5.4-2.8l129.9-235.5C575.4-149.2,574.7-152.2,572.5-153.8z"/>
	<text id="XMLID_88_" transform="matrix(1 0 0 1 252.0627 185.1312)" class="st7"><tspan x="0" y="0" class="st16 st17 st19" style="font-size:69.3428px;">V</tspan><tspan x="51.2" y="0" class="st0 st17 st19" style="font-size:69.3428px;">a</tspan><tspan x="90.3" y="0" class="st20 st17" style="font-size:69.3428px; letter-spacing:6;">r</tspan><tspan x="123.8" y="-5" class="st22 st17" style="font-size:40.6811px; letter-spacing:4;">{</tspan><tspan x="143.6" y="0" class="st3 st17" style="font-size:69.3428px;">i</tspan><tspan x="161.2" y="0" class="st25 st17" style="font-size:69.3428px;">a</tspan><tspan x="198.7" y="-5" class="st22 st17" style="font-size:40.6811px; letter-spacing:4;">}</tspan><tspan x="218.5" y="0" class="st20 st17" style="font-size:69.3428px; letter-spacing:6;">b</tspan><tspan x="267.1" y="0" class="st26 st17 st19" style="font-size:69.3428px;">l</tspan><tspan x="286.4" y="0" class="st27 st17 st19" style="font-size:69.3428px;">e</tspan></text>
	<path id="XMLID_10_" class="st34" d="M151.7,169.4L151.7,169.4c0.6,0,1.1-0.5,1.1-1.1V-121c0-0.6-0.5-1.1-1.1-1.1h0
		c-0.6,0-1.1,0.5-1.1,1.1v289.4C150.5,168.9,151,169.4,151.7,169.4z"/>
	<circle id="XMLID_64_" class="st35" cx="183.1" cy="-157.1" r="16.5"/>
	<text id="XMLID_91_" transform="matrix(1 0 0 1 173.2701 -145.3905)" class="st28 st17 st24" style="font-size:32px;">b</text>
</g>
</svg>
