<?xml version="1.0" encoding="utf-8"?>
<!-- Generator: Adobe Illustrator 19.0.0, SVG Export Plug-In . SVG Version: 6.00 Build 0)  -->
<svg version="1.1" id="Layer_1" xmlns="http://www.w3.org/2000/svg" xmlns:xlink="http://www.w3.org/1999/xlink" x="0px" y="0px"
	 viewBox="0 0 102.9 98.3" style="enable-background:new 0 0 102.9 98.3;" xml:space="preserve">
<style type="text/css">
	.st0{fill:#61C086;}
	.st1{fill:#C0D730;}
	.st2{fill:#FBDE00;}
	.st3{fill:#F06598;}
	.st4{fill:#EE3477;}
	.st5{fill:#72CFEE;}
	.st6{display:none;}
	.st7{display:inline;}
	.st8{display:inline;clip-path:url(#XMLID_156_);fill:#60C7CD;}
	.st9{display:inline;clip-path:url(#XMLID_156_);fill:#64BD59;}
	.st10{display:inline;clip-path:url(#XMLID_156_);fill:#C0D730;}
	.st11{display:inline;clip-path:url(#XMLID_156_);fill:#FBDE00;}
	.st12{display:inline;clip-path:url(#XMLID_156_);fill:#F8B916;}
	.st13{display:inline;clip-path:url(#XMLID_156_);fill:#F08721;}
	.st14{display:inline;clip-path:url(#XMLID_156_);fill:#F06598;}
	.st15{display:inline;clip-path:url(#XMLID_156_);fill:#EE3477;}
	.st16{display:inline;fill:#61C086;}
	.st17{display:inline;fill:#C0D730;}
	.st18{display:inline;fill:#FBDE00;}
	.st19{display:inline;fill:#F06598;}
	.st20{display:inline;fill:#EC3576;}
	.st21{display:inline;fill:#72CFEE;}
	.st22{display:inline;fill:#FFFFFF;stroke:#000000;stroke-miterlimit:10;}
	.st23{display:inline;fill:#FFFFFF;}
</style>
<path id="XMLID_69_" class="st0" d="M92.3,7.4L56.2,72.8c-1,1.7-0.3,3.9,1.4,4.9h0c1.7,1,3.9,0.3,4.9-1.4l36.1-65.4
	c1-1.7,0.3-3.9-1.4-4.9v0C95.4,5,93.2,5.7,92.3,7.4z"/>
<path id="XMLID_68_" class="st1" d="M74.3,7.4L38.6,72.3c-1,1.7-0.3,3.9,1.4,4.9l0,0c1.7,1,3.9,0.3,4.9-1.4l35.8-64.9
	C81.6,9.1,81,7,79.2,6v0C77.5,5,75.3,5.7,74.3,7.4z"/>
<path id="XMLID_67_" class="st2" d="M56.6,7.4L29.9,55.8c-1,1.7-0.3,3.9,1.4,4.9l0,0c1.7,1,3.9,0.3,4.9-1.4l26.7-48.4
	c1-1.7,0.3-3.9-1.4-4.9l0,0C59.8,5,57.6,5.7,56.6,7.4z"/>
<path id="XMLID_66_" class="st3" d="M38.7,7.4L20.9,39.6c-1,1.7-0.3,3.9,1.4,4.9l0,0c1.7,1,3.9,0.3,4.9-1.4L45,10.9
	C46,9.1,45.3,7,43.6,6l0,0C41.9,5,39.7,5.7,38.7,7.4z"/>
<path id="XMLID_65_" class="st4" d="M21.8,7.4L12,25.2c-1,1.7-0.3,3.9,1.4,4.9l0,0c1.7,1,3.9,0.3,4.9-1.4l9.8-17.8
	c1-1.7,0.3-3.9-1.4-4.9l0,0C25,5,22.8,5.7,21.8,7.4z"/>
<path id="XMLID_62_" class="st5" d="M4,7.4L4,7.4c-1,1.7-0.3,3.9,1.4,4.9l0,0c1.7,1,3.9,0.3,4.9-1.4l0,0c1-1.7,0.3-3.9-1.4-4.9l0,0
	C7.2,5,5,5.7,4,7.4z"/>
<path id="XMLID_70_" class="st0" d="M47.8,87.1L47.8,87.1c-1,1.7-0.3,3.9,1.4,4.9l0,0c1.7,1,3.9,0.3,4.9-1.4v0
	c1-1.7,0.3-3.9-1.4-4.9l0,0C50.9,84.8,48.8,85.4,47.8,87.1z"/>
<g id="XMLID_9_" class="st6">
	<defs>
		<path id="XMLID_71_" d="M958.1-199c-1.6-1.7-3.8-2.8-6.3-2.8H850.6c-2.4,0-4.6,1-6.1,2.6c-1.1,0.7-2,1.7-2.7,2.9L715.2,33.2
			c-2.3,4.2-0.8,9.4,3.4,11.7c4.2,2.3,9.4,0.8,11.7-3.4L855-184.6h83.8L749,159.6l-196.4-356c-1.2-2.2-3.2-3.6-5.4-4.2
			c-1.3-0.8-2.9-1.3-4.5-1.3H441.6c-4.8,0-8.6,3.9-8.6,8.6c0,0.1,0,0.2,0,0.4c-0.1,1.6,0.2,3.3,1,4.8l203,368c0.6,1.1,1.4,2,2.3,2.7
			c1.6,1.9,4,3.2,6.7,3.2h58.9c4.8,0,8.6-3.9,8.6-8.6c0-4.8-3.9-8.6-8.6-8.6h-54.4L455.6-184.6h83.8L740.6,180
			c1.7,3.1,5.1,4.8,8.4,4.4c3.3,0.3,6.7-1.3,8.4-4.4l203-368C962.6-191.8,961.5-196.5,958.1-199z"/>
	</defs>
	<clipPath id="XMLID_156_" class="st7">
		<use xlink:href="#XMLID_71_"  style="overflow:visible;"/>
	</clipPath>
	
		<rect id="XMLID_87_" x="168.2" y="-203.6" transform="matrix(0.4778 -0.8784 0.8784 0.4778 394.1275 300.3358)" class="st8" width="562.9" height="44.5"/>
	
		<rect id="XMLID_86_" x="194" y="-158.3" transform="matrix(0.4778 -0.8784 0.8784 0.4778 367.7677 346.588)" class="st9" width="562.9" height="44.5"/>
	
		<rect id="XMLID_85_" x="220.2" y="-113.4" transform="matrix(0.4778 -0.8784 0.8784 0.4778 342.0393 393.1241)" class="st10" width="562.9" height="44.5"/>
	
		<rect id="XMLID_84_" x="246" y="-69.5" transform="matrix(0.4778 -0.8784 0.8784 0.4778 316.8674 438.6535)" class="st11" width="562.9" height="44.5"/>
	
		<rect id="XMLID_83_" x="274.1" y="-28.9" transform="matrix(0.4778 -0.8784 0.8784 0.4778 295.9348 484.5535)" class="st12" width="562.9" height="44.5"/>
	
		<rect id="XMLID_82_" x="336.3" y="-50.9" transform="matrix(0.4778 -0.8784 0.8784 0.4778 347.7302 527.6857)" class="st13" width="562.9" height="44.5"/>
	
		<rect id="XMLID_81_" x="395.3" y="-71.8" transform="matrix(0.4778 -0.8784 0.8784 0.4778 396.8653 568.6025)" class="st14" width="562.9" height="44.5"/>
	
		<rect id="XMLID_80_" x="457.5" y="-93.8" transform="matrix(0.4778 -0.8784 0.8784 0.4778 448.677 611.7482)" class="st15" width="562.9" height="44.5"/>
	
		<rect id="XMLID_79_" x="497.6" y="-82.4" transform="matrix(0.4778 -0.8784 0.8784 0.4778 459.6404 652.9694)" class="st8" width="562.9" height="44.5"/>
	
		<rect id="XMLID_78_" x="523.4" y="-37.1" transform="matrix(0.4778 -0.8784 0.8784 0.4778 433.2807 699.2217)" class="st9" width="562.9" height="44.5"/>
	
		<rect id="XMLID_77_" x="549.6" y="7.8" transform="matrix(0.4778 -0.8784 0.8784 0.4778 407.5522 745.7578)" class="st10" width="562.9" height="44.5"/>
	
		<rect id="XMLID_76_" x="575.3" y="51.8" transform="matrix(0.4778 -0.8784 0.8784 0.4778 382.3803 791.2872)" class="st11" width="562.9" height="44.5"/>
	
		<rect id="XMLID_75_" x="603.5" y="92.3" transform="matrix(0.4778 -0.8784 0.8784 0.4778 361.4478 837.1872)" class="st12" width="562.9" height="44.5"/>
	
		<rect id="XMLID_74_" x="665.7" y="70.3" transform="matrix(0.4778 -0.8784 0.8784 0.4778 413.2432 880.3194)" class="st13" width="562.9" height="44.5"/>
	
		<rect id="XMLID_73_" x="724.7" y="49.4" transform="matrix(0.4778 -0.8784 0.8784 0.4778 462.3782 921.2362)" class="st14" width="562.9" height="44.5"/>
	
		<rect id="XMLID_72_" x="786.9" y="27.4" transform="matrix(0.4778 -0.8784 0.8784 0.4778 514.1899 964.382)" class="st15" width="562.9" height="44.5"/>
</g>
<g id="XMLID_93_" class="st6">
	<path id="XMLID_57_" class="st16" d="M463.3-159.5L395-35.7c-1.5,2.7-0.5,6,2.2,7.5l0,0c2.7,1.5,6,0.5,7.5-2.2L473-154.2
		c1.5-2.7,0.5-6-2.2-7.5v0C468.2-163.2,464.8-162.2,463.3-159.5z"/>
	<path id="XMLID_53_" class="st17" d="M435.8-159.5l-54.9,99.6c-1.5,2.7-0.5,6,2.2,7.5v0c2.7,1.5,6,0.5,7.5-2.2l54.9-99.6
		c1.5-2.7,0.5-6-2.2-7.5v0C440.6-163.2,437.3-162.2,435.8-159.5z"/>
	<path id="XMLID_55_" class="st18" d="M408.6-159.5l-41,74.4c-1.5,2.7-0.5,6,2.2,7.5v0c2.7,1.5,6,0.5,7.5-2.2l41-74.4
		c1.5-2.7,0.5-6-2.2-7.5l0,0C413.5-163.2,410.1-162.2,408.6-159.5z"/>
	<path id="XMLID_59_" class="st19" d="M381.1-159.5l-27.3,49.5c-1.5,2.7-0.5,6,2.2,7.5l0,0c2.7,1.5,6,0.5,7.5-2.2l27.3-49.5
		c1.5-2.7,0.5-6-2.2-7.5l0,0C385.9-163.2,382.6-162.2,381.1-159.5z"/>
	<path id="XMLID_60_" class="st20" d="M354.7-159.5l-15.1,27.3c-1.5,2.7-0.5,6,2.2,7.5l0,0c2.7,1.5,6,0.5,7.5-2.2l15.1-27.3
		c1.5-2.7,0.5-6-2.2-7.5h0C359.5-163.2,356.2-162.2,354.7-159.5z"/>
	<path id="XMLID_61_" class="st21" d="M327.8-159.5L327.8-159.5c-1.5,2.7-0.5,6,2.2,7.5v0c2.7,1.5,6,0.5,7.5-2.2v0
		c1.5-2.7,0.5-6-2.2-7.5v0C332.7-163.2,329.3-162.2,327.8-159.5z"/>
	<path id="XMLID_5_" class="st21" d="M565.7-160.6c-1-1.1-2.4-1.8-4.1-1.8h-64.7c-1.5,0-2.9,0.6-3.9,1.7c-0.7,0.5-1.3,1.1-1.7,1.8
		L410.3-12c-1.5,2.7-0.5,6,2.2,7.5c2.7,1.5,6,0.5,7.5-2.2l79.8-144.7h53.7L431.9,68.9L306.2-158.9c-0.8-1.4-2-2.3-3.5-2.7
		c-0.8-0.5-1.8-0.8-2.9-0.8h-64.7c-3,0-5.5,2.5-5.5,5.5c0,0.1,0,0.2,0,0.2c-0.1,1,0.1,2.1,0.7,3.1L360.2,82c0.4,0.7,0.9,1.3,1.5,1.7
		c1,1.2,2.5,2.1,4.3,2.1h37.7c3,0,5.5-2.5,5.5-5.5c0-3-2.5-5.5-5.5-5.5h-34.8L244.1-151.3h53.7L426.5,82c1.1,2,3.3,3,5.4,2.8
		c2.1,0.2,4.3-0.8,5.4-2.8l129.9-235.5C568.6-156,567.9-158.9,565.7-160.6z"/>
	<text id="XMLID_88_" transform="matrix(1 0 0 1 245.2243 178.3726)" class="st7"><tspan x="0" y="0" style="fill:#73CFED; font-family:'Nunito-Bold'; font-size:69.3428px; letter-spacing:1;">V</tspan><tspan x="51.2" y="0" class="st0" style="font-family:'Nunito-Bold'; font-size:69.3428px; letter-spacing:1;">a</tspan><tspan x="90.3" y="0" style="fill:#C0D731; font-family:'Nunito-Bold'; font-size:69.3428px; letter-spacing:6;">r</tspan><tspan x="123.8" y="-5" style="fill:#65BD5A; font-family:'Nunito-Bold'; font-size:40.6811px; letter-spacing:4;">{</tspan><tspan x="143.6" y="0" class="st3" style="font-family:'Nunito-Bold'; font-size:69.3428px;">i</tspan><tspan x="161.2" y="0" style="fill:#EE3577; font-family:'Nunito-Bold'; font-size:69.3428px;">a</tspan><tspan x="198.7" y="-5" style="fill:#65BD5A; font-family:'Nunito-Bold'; font-size:40.6811px; letter-spacing:4;">}</tspan><tspan x="218.5" y="0" style="fill:#C0D731; font-family:'Nunito-Bold'; font-size:69.3428px; letter-spacing:6;">b</tspan><tspan x="267.1" y="0" style="fill:#FADE00; font-family:'Nunito-Bold'; font-size:69.3428px; letter-spacing:1;">l</tspan><tspan x="286.4" y="0" style="fill:#F6B818; font-family:'Nunito-Bold'; font-size:69.3428px; letter-spacing:1;">e</tspan></text>
	<path id="XMLID_10_" class="st22" d="M144.8,162.7L144.8,162.7c0.6,0,1.1-0.5,1.1-1.1v-289.4c0-0.6-0.5-1.1-1.1-1.1l0,0
		c-0.6,0-1.1,0.5-1.1,1.1v289.4C143.7,162.2,144.2,162.7,144.8,162.7z"/>
	<circle id="XMLID_64_" class="st23" cx="176.3" cy="-163.8" r="16.5"/>
	
		<text id="XMLID_91_" transform="matrix(1 0 0 1 166.4317 -152.1491)" class="st16" style="font-family:'Nunito-Bold'; font-size:32px; letter-spacing:3;">b</text>
</g>
</svg>
