<?xml version="1.0" encoding="utf-8"?>
<!-- Generator: Adobe Illustrator 19.0.0, SVG Export Plug-In . SVG Version: 6.00 Build 0)  -->
<svg version="1.1" id="Layer_1" xmlns="http://www.w3.org/2000/svg" xmlns:xlink="http://www.w3.org/1999/xlink" x="0px" y="0px"
	 viewBox="0 0 118 128.3" style="enable-background:new 0 0 118 128.3;" xml:space="preserve">
<style type="text/css">
	.st0{fill:#61C086;}
	.st1{fill:#C0D730;}
	.st2{fill:#FBDE00;}
	.st3{fill:#F06598;}
	.st4{fill:#EE3477;}
	.st5{fill:#72CFEE;}
	.st6{display:none;}
	.st7{display:inline;}
	.st8{display:inline;clip-path:url(#XMLID_234_);fill:#60C7CD;}
	.st9{display:inline;clip-path:url(#XMLID_234_);fill:#64BD59;}
	.st10{display:inline;clip-path:url(#XMLID_234_);fill:#C0D730;}
	.st11{display:inline;clip-path:url(#XMLID_234_);fill:#FBDE00;}
	.st12{display:inline;clip-path:url(#XMLID_234_);fill:#F8B916;}
	.st13{display:inline;clip-path:url(#XMLID_234_);fill:#F08721;}
	.st14{display:inline;clip-path:url(#XMLID_234_);fill:#F06598;}
	.st15{display:inline;clip-path:url(#XMLID_234_);fill:#EE3477;}
	.st16{fill:#73CFED;}
	.st17{fill:#C0D731;}
	.st18{fill:#65BD5A;}
	.st19{fill:#EE3577;}
	.st20{fill:#FADE00;}
	.st21{fill:#F6B818;}
	.st22{display:inline;fill:#61C086;}
	.st23{display:inline;fill:#C0D730;}
	.st24{display:inline;fill:#FBDE00;}
	.st25{display:inline;fill:#F06598;}
	.st26{display:inline;fill:#EC3576;}
	.st27{display:inline;fill:#72CFEE;}
	.st28{display:inline;fill:#FFFFFF;stroke:#000000;stroke-miterlimit:10;}
	.st29{display:inline;fill:#FFFFFF;}
</style>
<path id="XMLID_69_" class="st0" d="M99.9,10.2L63.8,75.6c-1,1.7-0.3,3.9,1.4,4.9h0c1.7,1,3.9,0.3,4.9-1.4l36.1-65.4
	c1-1.7,0.3-3.9-1.4-4.9l0,0C103,7.9,100.8,8.5,99.9,10.2z"/>
<path id="XMLID_68_" class="st1" d="M81.9,10.2L46.2,75.1c-1,1.7-0.3,3.9,1.4,4.9h0c1.7,1,3.9,0.3,4.9-1.4l35.8-64.9
	c1-1.7,0.3-3.9-1.4-4.9l0,0C85.1,7.9,82.9,8.5,81.9,10.2z"/>
<path id="XMLID_67_" class="st2" d="M64.2,10.2L37.5,58.7c-1,1.7-0.3,3.9,1.4,4.9l0,0c1.7,1,3.9,0.3,4.9-1.4l26.7-48.4
	c1-1.7,0.3-3.9-1.4-4.9l0,0C67.4,7.9,65.2,8.5,64.2,10.2z"/>
<path id="XMLID_66_" class="st3" d="M46.3,10.2L28.5,42.4c-1,1.7-0.3,3.9,1.4,4.9l0,0c1.7,1,3.9,0.3,4.9-1.4l17.8-32.2
	c1-1.7,0.3-3.9-1.4-4.9l0,0C49.5,7.9,47.3,8.5,46.3,10.2z"/>
<path id="XMLID_65_" class="st4" d="M29.4,10.2L19.6,28c-1,1.7-0.3,3.9,1.4,4.9l0,0c1.7,1,3.9,0.3,4.9-1.4l9.8-17.8
	c1-1.7,0.3-3.9-1.4-4.9l0,0C32.6,7.9,30.4,8.5,29.4,10.2z"/>
<path id="XMLID_62_" class="st5" d="M11.6,10.2L11.6,10.2c-1,1.7-0.3,3.9,1.4,4.9l0,0c1.7,1,3.9,0.3,4.9-1.4l0,0
	c1-1.7,0.3-3.9-1.4-4.9l0,0C14.8,7.9,12.6,8.5,11.6,10.2z"/>
<path id="XMLID_70_" class="st0" d="M55.4,90L55.4,90c-1,1.7-0.3,3.9,1.4,4.9l0,0c1.7,1,3.9,0.3,4.9-1.4h0c1-1.7,0.3-3.9-1.4-4.9
	l0,0C58.5,87.6,56.4,88.2,55.4,90z"/>
<g id="XMLID_9_" class="st6">
	<defs>
		<path id="XMLID_71_" d="M822.9-130.7c-1.6-1.7-3.8-2.8-6.3-2.8H715.4c-2.4,0-4.6,1-6.1,2.6c-1.1,0.7-2,1.7-2.7,2.9L580,101.5
			c-2.3,4.2-0.8,9.4,3.4,11.7c4.2,2.3,9.4,0.8,11.7-3.4l124.7-226.1h83.8L613.8,228L417.4-128c-1.2-2.2-3.2-3.6-5.4-4.2
			c-1.3-0.8-2.9-1.3-4.5-1.3H306.3c-4.8,0-8.6,3.9-8.6,8.6c0,0.1,0,0.2,0,0.4c-0.1,1.6,0.2,3.3,1,4.8l203,368c0.6,1.1,1.4,2,2.3,2.7
			c1.6,1.9,4,3.2,6.7,3.2h58.9c4.8,0,8.6-3.9,8.6-8.6c0-4.8-3.9-8.6-8.6-8.6h-54.4L320.4-116.2h83.8l201.1,364.6
			c1.7,3.1,5.1,4.8,8.4,4.4c3.3,0.3,6.7-1.3,8.4-4.4l203-368C827.3-123.5,826.2-128.1,822.9-130.7z"/>
	</defs>
	<clipPath id="XMLID_234_" class="st7">
		<use xlink:href="#XMLID_71_"  style="overflow:visible;"/>
	</clipPath>
	
		<rect id="XMLID_87_" x="33" y="-135.3" transform="matrix(0.4778 -0.8784 0.8784 0.4778 263.4717 217.208)" class="st8" width="562.9" height="44.5"/>
	
		<rect id="XMLID_86_" x="58.7" y="-90" transform="matrix(0.4778 -0.8784 0.8784 0.4778 237.112 263.4603)" class="st9" width="562.9" height="44.5"/>
	
		<rect id="XMLID_85_" x="85" y="-45.1" transform="matrix(0.4778 -0.8784 0.8784 0.4778 211.3836 309.9963)" class="st10" width="562.9" height="44.5"/>
	
		<rect id="XMLID_84_" x="110.7" y="-1.1" transform="matrix(0.4778 -0.8784 0.8784 0.4778 186.2116 355.5258)" class="st11" width="562.9" height="44.5"/>
	
		<rect id="XMLID_83_" x="138.9" y="39.4" transform="matrix(0.4778 -0.8784 0.8784 0.4778 165.2791 401.4258)" class="st12" width="562.9" height="44.5"/>
	
		<rect id="XMLID_82_" x="201" y="17.4" transform="matrix(0.4778 -0.8784 0.8784 0.4778 217.0745 444.558)" class="st13" width="562.9" height="44.5"/>
	
		<rect id="XMLID_81_" x="260" y="-3.4" transform="matrix(0.4778 -0.8784 0.8784 0.4778 266.2095 485.4748)" class="st14" width="562.9" height="44.5"/>
	
		<rect id="XMLID_80_" x="322.2" y="-25.4" transform="matrix(0.4778 -0.8784 0.8784 0.4778 318.0212 528.6205)" class="st15" width="562.9" height="44.5"/>
	
		<rect id="XMLID_79_" x="362.4" y="-14.1" transform="matrix(0.4778 -0.8784 0.8784 0.4778 328.9847 569.8417)" class="st8" width="562.9" height="44.5"/>
	
		<rect id="XMLID_78_" x="388.1" y="31.2" transform="matrix(0.4778 -0.8784 0.8784 0.4778 302.6249 616.094)" class="st9" width="562.9" height="44.5"/>
	
		<rect id="XMLID_77_" x="414.4" y="76.2" transform="matrix(0.4778 -0.8784 0.8784 0.4778 276.8965 662.63)" class="st10" width="562.9" height="44.5"/>
	
		<rect id="XMLID_76_" x="440.1" y="120.1" transform="matrix(0.4778 -0.8784 0.8784 0.4778 251.7246 708.1594)" class="st11" width="562.9" height="44.5"/>
	
		<rect id="XMLID_75_" x="468.2" y="160.7" transform="matrix(0.4778 -0.8784 0.8784 0.4778 230.792 754.0595)" class="st12" width="562.9" height="44.5"/>
	
		<rect id="XMLID_74_" x="530.4" y="138.7" transform="matrix(0.4778 -0.8784 0.8784 0.4778 282.5874 797.1917)" class="st13" width="562.9" height="44.5"/>
	
		<rect id="XMLID_73_" x="589.4" y="117.8" transform="matrix(0.4778 -0.8784 0.8784 0.4778 331.7225 838.1085)" class="st14" width="562.9" height="44.5"/>
	
		<rect id="XMLID_72_" x="651.6" y="95.8" transform="matrix(0.4778 -0.8784 0.8784 0.4778 383.5341 881.2542)" class="st15" width="562.9" height="44.5"/>
</g>
<g id="XMLID_208_">
	<path id="XMLID_209_" class="st16" d="M26.4,106.8c0.3,0,0.7,0.1,0.9,0.3s0.4,0.5,0.4,0.8c0,0.2,0,0.3-0.1,0.5L21.8,121
		c-0.1,0.3-0.3,0.5-0.6,0.6c-0.3,0.1-0.5,0.2-0.8,0.2c-0.3,0-0.6-0.1-0.8-0.2c-0.3-0.1-0.5-0.4-0.6-0.6l-5.8-12.5
		c-0.1-0.2-0.1-0.4-0.1-0.5c0-0.3,0.1-0.6,0.4-0.9s0.6-0.3,1-0.3c0.2,0,0.5,0.1,0.7,0.2c0.2,0.1,0.4,0.3,0.5,0.5l4.8,10.7l4.8-10.7
		C25.5,107,25.9,106.8,26.4,106.8z"/>
	<path id="XMLID_211_" class="st0" d="M36.2,112.3c0.7,0.7,1,1.8,1,3.2v5.1c0,0.4-0.1,0.7-0.3,0.9s-0.5,0.3-0.9,0.3
		c-0.4,0-0.7-0.1-0.9-0.3c-0.2-0.2-0.3-0.5-0.3-0.9v-0.5c-0.2,0.5-0.6,1-1.1,1.3c-0.5,0.3-1.1,0.5-1.8,0.5c-0.7,0-1.3-0.1-1.9-0.4
		c-0.6-0.3-1-0.7-1.3-1.2c-0.3-0.5-0.5-1-0.5-1.6c0-0.8,0.2-1.3,0.6-1.8c0.4-0.4,1-0.7,1.9-0.9s2.1-0.3,3.6-0.3h0.5v-0.5
		c0-0.7-0.1-1.2-0.4-1.5c-0.3-0.3-0.8-0.5-1.4-0.5c-0.4,0-0.8,0.1-1.2,0.2c-0.4,0.1-0.9,0.3-1.5,0.5c-0.4,0.2-0.6,0.3-0.8,0.3
		c-0.3,0-0.5-0.1-0.6-0.3s-0.2-0.4-0.2-0.7c0-0.2,0.1-0.4,0.2-0.6c0.1-0.2,0.3-0.3,0.6-0.5c0.5-0.3,1.1-0.5,1.7-0.6
		c0.7-0.2,1.3-0.2,2-0.2C34.4,111.2,35.5,111.6,36.2,112.3z M34,119.3c0.4-0.5,0.7-1.1,0.7-1.8V117h-0.4c-0.9,0-1.7,0-2.2,0.1
		c-0.5,0.1-0.9,0.2-1.1,0.4c-0.2,0.2-0.3,0.5-0.3,0.9c0,0.4,0.2,0.8,0.5,1.1s0.7,0.4,1.2,0.4C33,120,33.6,119.7,34,119.3z"/>
	<path id="XMLID_214_" class="st17" d="M46.9,111.5c0.2,0.2,0.3,0.5,0.3,0.8c0,0.4-0.1,0.7-0.3,0.8c-0.2,0.2-0.5,0.3-1,0.4l-0.6,0.1
		c-0.8,0.1-1.4,0.4-1.8,0.8c-0.4,0.5-0.6,1.1-0.6,1.8v4.4c0,0.4-0.1,0.7-0.4,0.9c-0.3,0.2-0.6,0.3-0.9,0.3s-0.7-0.1-0.9-0.3
		c-0.2-0.2-0.4-0.5-0.4-0.9v-8.1c0-0.4,0.1-0.7,0.4-0.9c0.2-0.2,0.5-0.3,0.9-0.3c0.4,0,0.7,0.1,0.9,0.3c0.2,0.2,0.3,0.5,0.3,0.9v0.8
		c0.3-0.6,0.7-1.1,1.2-1.4s1.1-0.5,1.7-0.6l0.3,0C46.4,111.2,46.7,111.3,46.9,111.5z"/>
	<path id="XMLID_216_" class="st18" d="M53.7,121.4c0.1,0.1,0.2,0.2,0.2,0.4s-0.1,0.3-0.2,0.4c-0.1,0.1-0.3,0.1-0.4,0.1h-0.9
		c-0.5,0-0.8-0.1-1.1-0.4c-0.3-0.3-0.4-0.6-0.4-1.1v-2.4c0-0.3-0.1-0.6-0.2-0.7c-0.1-0.1-0.3-0.2-0.6-0.3c-0.2,0-0.3-0.1-0.4-0.2
		c-0.1-0.1-0.2-0.3-0.2-0.4c0-0.2,0.1-0.3,0.2-0.4c0.1-0.1,0.2-0.2,0.4-0.2c0.3,0,0.5-0.1,0.6-0.3c0.1-0.1,0.2-0.4,0.2-0.7V113
		c0-0.5,0.1-0.8,0.4-1.1c0.3-0.3,0.6-0.4,1.1-0.4h0.9c0.2,0,0.3,0,0.4,0.1s0.2,0.2,0.2,0.4c0,0.2-0.1,0.3-0.2,0.4
		c-0.1,0.1-0.3,0.1-0.4,0.1h-0.4c-0.2,0-0.3,0-0.4,0.1c-0.1,0.1-0.1,0.2-0.1,0.4v2.4c0,0.4-0.1,0.7-0.3,0.9
		c-0.2,0.3-0.4,0.4-0.7,0.5c0.3,0.1,0.5,0.2,0.7,0.5c0.2,0.2,0.3,0.6,0.3,0.9v2.4c0,0.2,0,0.3,0.1,0.4c0.1,0.1,0.2,0.1,0.4,0.1h0.4
		C53.4,121.2,53.6,121.3,53.7,121.4z"/>
	<path id="XMLID_218_" class="st3" d="M56.6,109c-0.3-0.3-0.4-0.6-0.4-1s0.1-0.8,0.4-1c0.3-0.3,0.7-0.4,1.1-0.4
		c0.5,0,0.8,0.1,1.1,0.4c0.3,0.3,0.4,0.6,0.4,1s-0.1,0.8-0.4,1c-0.3,0.3-0.7,0.4-1.1,0.4C57.3,109.4,56.9,109.3,56.6,109z
		 M56.8,121.5c-0.2-0.2-0.4-0.5-0.4-0.9v-8.1c0-0.4,0.1-0.7,0.4-0.9c0.2-0.2,0.6-0.3,0.9-0.3s0.7,0.1,0.9,0.3
		c0.3,0.2,0.4,0.5,0.4,0.9v8.1c0,0.4-0.1,0.7-0.4,0.9c-0.3,0.2-0.6,0.3-0.9,0.3S57.1,121.7,56.8,121.5z"/>
	<path id="XMLID_221_" class="st19" d="M69.4,112.3c0.7,0.7,1,1.8,1,3.2v5.1c0,0.4-0.1,0.7-0.3,0.9s-0.5,0.3-0.9,0.3
		c-0.4,0-0.7-0.1-0.9-0.3c-0.2-0.2-0.3-0.5-0.3-0.9v-0.5c-0.2,0.5-0.6,1-1.1,1.3c-0.5,0.3-1.1,0.5-1.8,0.5c-0.7,0-1.3-0.1-1.9-0.4
		c-0.6-0.3-1-0.7-1.3-1.2c-0.3-0.5-0.5-1-0.5-1.6c0-0.8,0.2-1.3,0.6-1.8c0.4-0.4,1-0.7,1.9-0.9c0.9-0.2,2.1-0.3,3.6-0.3h0.5v-0.5
		c0-0.7-0.1-1.2-0.4-1.5c-0.3-0.3-0.8-0.5-1.4-0.5c-0.4,0-0.8,0.1-1.2,0.2c-0.4,0.1-0.9,0.3-1.5,0.5c-0.4,0.2-0.6,0.3-0.8,0.3
		c-0.3,0-0.5-0.1-0.6-0.3s-0.2-0.4-0.2-0.7c0-0.2,0.1-0.4,0.2-0.6c0.1-0.2,0.3-0.3,0.6-0.5c0.5-0.3,1.1-0.5,1.7-0.6
		c0.7-0.2,1.3-0.2,2-0.2C67.6,111.2,68.7,111.6,69.4,112.3z M67.3,119.3c0.4-0.5,0.7-1.1,0.7-1.8V117h-0.4c-0.9,0-1.7,0-2.2,0.1
		c-0.5,0.1-0.9,0.2-1.1,0.4c-0.2,0.2-0.3,0.5-0.3,0.9c0,0.4,0.2,0.8,0.5,1.1s0.7,0.4,1.2,0.4C66.3,120,66.8,119.7,67.3,119.3z"/>
	<path id="XMLID_224_" class="st18" d="M76,116.5c0.1,0.1,0.2,0.2,0.2,0.4c0,0.2,0,0.3-0.1,0.4c-0.1,0.1-0.2,0.2-0.4,0.2
		c-0.3,0-0.5,0.1-0.6,0.3s-0.2,0.4-0.2,0.7v2.4c0,0.5-0.1,0.8-0.4,1.1c-0.3,0.3-0.6,0.4-1.1,0.4h-0.9c-0.2,0-0.3,0-0.4-0.1
		c-0.1-0.1-0.2-0.2-0.2-0.4s0.1-0.3,0.2-0.4c0.1-0.1,0.3-0.1,0.4-0.1h0.4c0.2,0,0.3,0,0.4-0.1c0.1-0.1,0.1-0.2,0.1-0.4v-2.4
		c0-0.4,0.1-0.7,0.3-0.9c0.2-0.2,0.4-0.4,0.7-0.5c-0.3-0.1-0.5-0.2-0.7-0.5c-0.2-0.2-0.3-0.6-0.3-0.9v-2.4c0-0.2,0-0.3-0.1-0.4
		c-0.1-0.1-0.2-0.1-0.4-0.1h-0.4c-0.2,0-0.3,0-0.4-0.1c-0.1-0.1-0.2-0.2-0.2-0.4c0-0.2,0.1-0.3,0.2-0.4s0.3-0.1,0.4-0.1h0.9
		c0.5,0,0.8,0.1,1.1,0.4c0.3,0.3,0.4,0.6,0.4,1.1v2.4c0,0.3,0.1,0.6,0.2,0.7s0.3,0.2,0.6,0.3C75.7,116.4,75.9,116.4,76,116.5z"/>
	<path id="XMLID_226_" class="st17" d="M87.3,111.9c0.7,0.4,1.2,1,1.6,1.8c0.4,0.8,0.6,1.7,0.6,2.8c0,1.1-0.2,2-0.6,2.8
		c-0.4,0.8-0.9,1.4-1.6,1.9c-0.7,0.4-1.5,0.7-2.4,0.7c-0.7,0-1.4-0.2-2-0.5c-0.6-0.3-1-0.8-1.3-1.3v0.5c0,0.4-0.1,0.7-0.4,0.9
		c-0.2,0.2-0.6,0.3-0.9,0.3c-0.4,0-0.7-0.1-0.9-0.3c-0.2-0.2-0.3-0.5-0.3-0.9V108c0-0.4,0.1-0.7,0.4-0.9c0.2-0.2,0.6-0.3,1-0.3
		c0.4,0,0.7,0.1,0.9,0.3c0.2,0.2,0.4,0.5,0.4,0.9v4.9c0.3-0.6,0.7-1,1.3-1.3c0.6-0.3,1.2-0.5,1.9-0.5
		C85.9,111.2,86.7,111.4,87.3,111.9z M86.2,119c0.5-0.6,0.7-1.4,0.7-2.5c0-1-0.2-1.8-0.7-2.4s-1.1-0.8-1.9-0.8
		c-0.8,0-1.5,0.3-1.9,0.8c-0.5,0.6-0.7,1.4-0.7,2.4c0,1.1,0.2,1.9,0.7,2.4c0.5,0.6,1.1,0.9,1.9,0.9C85.1,119.8,85.7,119.5,86.2,119z
		"/>
	<path id="XMLID_229_" class="st20" d="M94.1,121.5c-0.2-0.2-0.4-0.5-0.4-0.9v-12.5c0-0.4,0.1-0.7,0.4-0.9s0.6-0.3,0.9-0.3
		s0.7,0.1,0.9,0.3c0.3,0.2,0.4,0.5,0.4,0.9v12.5c0,0.4-0.1,0.7-0.4,0.9c-0.3,0.2-0.6,0.3-0.9,0.3S94.4,121.7,94.1,121.5z"/>
	<path id="XMLID_231_" class="st21" d="M108.3,119.2c0.1,0.2,0.2,0.4,0.2,0.7c0,0.4-0.3,0.8-0.8,1.1c-0.5,0.3-1,0.5-1.6,0.6
		c-0.6,0.2-1.2,0.2-1.7,0.2c-1.6,0-3-0.5-3.9-1.4c-1-0.9-1.4-2.2-1.4-3.9c0-1,0.2-2,0.6-2.8s1-1.4,1.8-1.9c0.8-0.4,1.6-0.7,2.6-0.7
		c0.9,0,1.7,0.2,2.4,0.6c0.7,0.4,1.2,1,1.6,1.7c0.4,0.7,0.6,1.6,0.6,2.6c0,0.6-0.3,0.9-0.8,0.9h-6.2c0.1,1,0.4,1.7,0.8,2.1
		c0.5,0.5,1.1,0.7,2,0.7c0.4,0,0.8-0.1,1.2-0.2c0.3-0.1,0.7-0.3,1.2-0.5c0.4-0.2,0.7-0.3,0.9-0.3C107.9,118.9,108.1,119,108.3,119.2
		z M102.4,113.7c-0.4,0.4-0.7,1.1-0.8,1.9h4.7c0-0.9-0.2-1.5-0.6-1.9c-0.4-0.4-0.9-0.7-1.6-0.7C103.4,113.1,102.8,113.3,102.4,113.7
		z"/>
</g>
<g id="XMLID_93_" class="st6">
	<path id="XMLID_57_" class="st22" d="M328.1-91.2L259.8,32.6c-1.5,2.7-0.5,6,2.2,7.5v0c2.7,1.5,6,0.5,7.5-2.2l68.3-123.8
		c1.5-2.7,0.5-6-2.2-7.5v0C332.9-94.8,329.5-93.8,328.1-91.2z"/>
	<path id="XMLID_53_" class="st23" d="M300.6-91.2L245.6,8.4c-1.5,2.7-0.5,6,2.2,7.5v0c2.7,1.5,6,0.5,7.5-2.2l54.9-99.6
		c1.5-2.7,0.5-6-2.2-7.5v0C305.4-94.8,302-93.8,300.6-91.2z"/>
	<path id="XMLID_55_" class="st24" d="M273.4-91.2l-41,74.4c-1.5,2.7-0.5,6,2.2,7.5l0,0c2.7,1.5,6,0.5,7.5-2.2l41-74.4
		c1.5-2.7,0.5-6-2.2-7.5l0,0C278.2-94.8,274.8-93.8,273.4-91.2z"/>
	<path id="XMLID_59_" class="st25" d="M245.9-91.2l-27.3,49.5c-1.5,2.7-0.5,6,2.2,7.5v0c2.7,1.5,6,0.5,7.5-2.2l27.3-49.5
		c1.5-2.7,0.5-6-2.2-7.5v0C250.7-94.8,247.3-93.8,245.9-91.2z"/>
	<path id="XMLID_60_" class="st26" d="M219.5-91.2l-15.1,27.3c-1.5,2.7-0.5,6,2.2,7.5l0,0c2.7,1.5,6,0.5,7.5-2.2l15.1-27.3
		c1.5-2.7,0.5-6-2.2-7.5l0,0C224.3-94.8,220.9-93.8,219.5-91.2z"/>
	<path id="XMLID_61_" class="st27" d="M192.6-91.2L192.6-91.2c-1.5,2.7-0.5,6,2.2,7.5v0c2.7,1.5,6,0.5,7.5-2.2l0,0
		c1.5-2.7,0.5-6-2.2-7.5l0,0C197.4-94.8,194-93.8,192.6-91.2z"/>
	<path id="XMLID_5_" class="st27" d="M430.5-92.2c-1-1.1-2.4-1.8-4.1-1.8h-64.7c-1.5,0-2.9,0.6-3.9,1.7c-0.7,0.5-1.3,1.1-1.7,1.8
		L275,56.4c-1.5,2.7-0.5,6,2.2,7.5c2.7,1.5,6,0.5,7.5-2.2L364.5-83h53.7L296.6,137.3L171-90.5c-0.8-1.4-2-2.3-3.5-2.7
		c-0.8-0.5-1.8-0.8-2.9-0.8H99.9c-3,0-5.5,2.5-5.5,5.5c0,0.1,0,0.2,0,0.2c-0.1,1,0.1,2.1,0.7,3.1L225,150.3c0.4,0.7,0.9,1.3,1.5,1.7
		c1,1.2,2.5,2.1,4.3,2.1h37.7c3,0,5.5-2.5,5.5-5.5c0-3-2.5-5.5-5.5-5.5h-34.8L108.9-83h53.7l128.7,233.3c1.1,2,3.3,3,5.4,2.8
		c2.1,0.2,4.3-0.8,5.4-2.8L432-85.2C433.3-87.6,432.6-90.6,430.5-92.2z"/>
	<text id="XMLID_88_" transform="matrix(1 0 0 1 109.9717 246.7127)" class="st7"><tspan x="0" y="0" class="st16" style="font-family:'Nunito-Bold'; font-size:69.3428px; letter-spacing:1;">V</tspan><tspan x="51.2" y="0" class="st0" style="font-family:'Nunito-Bold'; font-size:69.3428px; letter-spacing:1;">a</tspan><tspan x="90.3" y="0" class="st17" style="font-family:'Nunito-Bold'; font-size:69.3428px; letter-spacing:6;">r</tspan><tspan x="123.8" y="-5" class="st18" style="font-family:'Nunito-Bold'; font-size:40.6811px; letter-spacing:4;">{</tspan><tspan x="143.6" y="0" class="st3" style="font-family:'Nunito-Bold'; font-size:69.3428px;">i</tspan><tspan x="161.2" y="0" class="st19" style="font-family:'Nunito-Bold'; font-size:69.3428px;">a</tspan><tspan x="198.7" y="-5" class="st18" style="font-family:'Nunito-Bold'; font-size:40.6811px; letter-spacing:4;">}</tspan><tspan x="218.5" y="0" class="st17" style="font-family:'Nunito-Bold'; font-size:69.3428px; letter-spacing:6;">b</tspan><tspan x="267.1" y="0" class="st20" style="font-family:'Nunito-Bold'; font-size:69.3428px; letter-spacing:1;">l</tspan><tspan x="286.4" y="0" class="st21" style="font-family:'Nunito-Bold'; font-size:69.3428px; letter-spacing:1;">e</tspan></text>
	<path id="XMLID_10_" class="st28" d="M9.6,231L9.6,231c0.6,0,1.1-0.5,1.1-1.1V-59.5c0-0.6-0.5-1.1-1.1-1.1h0
		c-0.6,0-1.1,0.5-1.1,1.1v289.4C8.4,230.5,8.9,231,9.6,231z"/>
	<circle id="XMLID_64_" class="st29" cx="41" cy="-95.5" r="16.5"/>
	
		<text id="XMLID_91_" transform="matrix(1 0 0 1 31.1792 -83.8091)" class="st22" style="font-family:'Nunito-Bold'; font-size:32px; letter-spacing:3;">b</text>
</g>
</svg>
